<mxfile host="app.diagrams.net" agent="Mozilla/5.0 (Windows NT 10.0; Win64; x64; rv:133.0) Gecko/20100101 Firefox/133.0" version="26.0.2">
  <diagram name="Page-1" id="fSzne5FeyF9v7aUbRhjU">
    <mxGraphModel dx="555" dy="336" grid="1" gridSize="10" guides="1" tooltips="1" connect="1" arrows="1" fold="1" page="1" pageScale="1" pageWidth="850" pageHeight="1100" math="0" shadow="0">
      <root>
        <mxCell id="0" />
        <mxCell id="1" parent="0" />
        <mxCell id="f8GiJkTL6AcmwSYEIjCt-4" value="" style="edgeStyle=orthogonalEdgeStyle;rounded=0;orthogonalLoop=1;jettySize=auto;html=1;" edge="1" parent="1" source="f8GiJkTL6AcmwSYEIjCt-1" target="f8GiJkTL6AcmwSYEIjCt-3">
          <mxGeometry relative="1" as="geometry" />
        </mxCell>
        <mxCell id="f8GiJkTL6AcmwSYEIjCt-1" value="Get Frame" style="html=1;whiteSpace=wrap;" vertex="1" parent="1">
          <mxGeometry x="200" y="20" width="110" height="50" as="geometry" />
        </mxCell>
        <mxCell id="f8GiJkTL6AcmwSYEIjCt-9" value="" style="edgeStyle=orthogonalEdgeStyle;rounded=0;orthogonalLoop=1;jettySize=auto;html=1;" edge="1" parent="1" source="f8GiJkTL6AcmwSYEIjCt-3" target="f8GiJkTL6AcmwSYEIjCt-8">
          <mxGeometry relative="1" as="geometry" />
        </mxCell>
        <mxCell id="f8GiJkTL6AcmwSYEIjCt-3" value="Detect Face" style="html=1;whiteSpace=wrap;" vertex="1" parent="1">
          <mxGeometry x="200" y="130" width="110" height="50" as="geometry" />
        </mxCell>
        <mxCell id="f8GiJkTL6AcmwSYEIjCt-11" value="" style="edgeStyle=orthogonalEdgeStyle;rounded=0;orthogonalLoop=1;jettySize=auto;html=1;" edge="1" parent="1" source="f8GiJkTL6AcmwSYEIjCt-8" target="f8GiJkTL6AcmwSYEIjCt-10">
          <mxGeometry relative="1" as="geometry" />
        </mxCell>
        <mxCell id="f8GiJkTL6AcmwSYEIjCt-8" value="Save Face Data" style="html=1;whiteSpace=wrap;" vertex="1" parent="1">
          <mxGeometry x="200" y="240" width="110" height="50" as="geometry" />
        </mxCell>
        <mxCell id="f8GiJkTL6AcmwSYEIjCt-13" value="" style="edgeStyle=orthogonalEdgeStyle;rounded=0;orthogonalLoop=1;jettySize=auto;html=1;" edge="1" parent="1" source="f8GiJkTL6AcmwSYEIjCt-10" target="f8GiJkTL6AcmwSYEIjCt-12">
          <mxGeometry relative="1" as="geometry" />
        </mxCell>
        <mxCell id="f8GiJkTL6AcmwSYEIjCt-10" value="Eye Detection" style="html=1;whiteSpace=wrap;" vertex="1" parent="1">
          <mxGeometry x="200" y="350" width="110" height="50" as="geometry" />
        </mxCell>
        <mxCell id="f8GiJkTL6AcmwSYEIjCt-15" value="" style="edgeStyle=orthogonalEdgeStyle;rounded=0;orthogonalLoop=1;jettySize=auto;html=1;" edge="1" parent="1" source="f8GiJkTL6AcmwSYEIjCt-12" target="f8GiJkTL6AcmwSYEIjCt-14">
          <mxGeometry relative="1" as="geometry" />
        </mxCell>
        <mxCell id="f8GiJkTL6AcmwSYEIjCt-16" value="" style="edgeStyle=orthogonalEdgeStyle;rounded=0;orthogonalLoop=1;jettySize=auto;html=1;" edge="1" parent="1" source="f8GiJkTL6AcmwSYEIjCt-12" target="f8GiJkTL6AcmwSYEIjCt-14">
          <mxGeometry relative="1" as="geometry" />
        </mxCell>
        <mxCell id="f8GiJkTL6AcmwSYEIjCt-12" value="Save Eye Data" style="html=1;whiteSpace=wrap;" vertex="1" parent="1">
          <mxGeometry x="200" y="460" width="110" height="50" as="geometry" />
        </mxCell>
        <mxCell id="f8GiJkTL6AcmwSYEIjCt-22" value="" style="edgeStyle=orthogonalEdgeStyle;rounded=0;orthogonalLoop=1;jettySize=auto;html=1;" edge="1" parent="1" source="f8GiJkTL6AcmwSYEIjCt-14" target="f8GiJkTL6AcmwSYEIjCt-21">
          <mxGeometry relative="1" as="geometry" />
        </mxCell>
        <mxCell id="f8GiJkTL6AcmwSYEIjCt-14" value="Detect Pupil" style="html=1;whiteSpace=wrap;" vertex="1" parent="1">
          <mxGeometry x="140" y="570" width="110" height="50" as="geometry" />
        </mxCell>
        <mxCell id="f8GiJkTL6AcmwSYEIjCt-18" value="" style="edgeStyle=orthogonalEdgeStyle;rounded=0;orthogonalLoop=1;jettySize=auto;html=1;endArrow=none;endFill=0;startArrow=classic;startFill=1;" edge="1" parent="1" source="f8GiJkTL6AcmwSYEIjCt-17" target="f8GiJkTL6AcmwSYEIjCt-12">
          <mxGeometry relative="1" as="geometry" />
        </mxCell>
        <mxCell id="f8GiJkTL6AcmwSYEIjCt-24" value="" style="edgeStyle=orthogonalEdgeStyle;rounded=0;orthogonalLoop=1;jettySize=auto;html=1;" edge="1" parent="1" source="f8GiJkTL6AcmwSYEIjCt-17" target="f8GiJkTL6AcmwSYEIjCt-23">
          <mxGeometry relative="1" as="geometry" />
        </mxCell>
        <mxCell id="f8GiJkTL6AcmwSYEIjCt-17" value="Calculate EAR" style="html=1;whiteSpace=wrap;" vertex="1" parent="1">
          <mxGeometry x="260" y="570" width="110" height="50" as="geometry" />
        </mxCell>
        <mxCell id="f8GiJkTL6AcmwSYEIjCt-21" value="Save Pupil Position" style="html=1;whiteSpace=wrap;" vertex="1" parent="1">
          <mxGeometry x="140" y="670" width="110" height="50" as="geometry" />
        </mxCell>
        <mxCell id="f8GiJkTL6AcmwSYEIjCt-26" value="" style="edgeStyle=orthogonalEdgeStyle;rounded=0;orthogonalLoop=1;jettySize=auto;html=1;" edge="1" parent="1" source="f8GiJkTL6AcmwSYEIjCt-23" target="f8GiJkTL6AcmwSYEIjCt-25">
          <mxGeometry relative="1" as="geometry" />
        </mxCell>
        <mxCell id="f8GiJkTL6AcmwSYEIjCt-23" value="Blink Detection" style="html=1;whiteSpace=wrap;" vertex="1" parent="1">
          <mxGeometry x="260" y="670" width="110" height="50" as="geometry" />
        </mxCell>
        <mxCell id="f8GiJkTL6AcmwSYEIjCt-25" value="&lt;div&gt;Save Blink&lt;/div&gt;" style="html=1;whiteSpace=wrap;" vertex="1" parent="1">
          <mxGeometry x="260" y="770" width="110" height="50" as="geometry" />
        </mxCell>
      </root>
    </mxGraphModel>
  </diagram>
</mxfile>
